<?xml version="1.0" encoding="UTF-8"?>
<svg width="24px" height="24px" viewBox="0 0 24 24" version="1.1" xmlns="http://www.w3.org/2000/svg" xmlns:xlink="http://www.w3.org/1999/xlink">
    <!-- Generator: Sketch 64 (93537) - https://sketch.com -->
    <title>Artboard</title>
    <desc>Created with Sketch.</desc>
    <defs>
        <path d="M22.4599006,0.818239282 C20.7558383,-0.605306193 18.0766551,0.131455673 16.2075431,0.764142551 C12.608144,1.98243211 9.35368634,4.08552604 6.51871592,6.58666505 C3.87122583,8.92228588 1.520468,11.6985836 0.466114335,15.1252665 C-0.111950016,17.004627 -0.371744188,19.4327465 1.01806535,21.0401764 C2.18524201,22.3902572 4.21873401,22.7771712 6.61357204,22.3113383 C9.03262628,21.840719 13.6609353,18.683184 16.0044395,15.7891202 L16.5365265,15.7891202 C16.5365265,15.7891202 11.6779961,21.3025344 11.6181809,21.4618192 L17.8805819,21.4618192 L21.9396426,11.0579937 C21.9396426,11.0579937 19.5512772,13.4773197 19.456421,13.561025 C17.9464232,14.8934074 16.172837,14.3711402 14.685493,13.6908126 C13.1981491,13.010485 10.2891988,13.3177419 9.17656507,13.6908126 C8.47585742,13.9257628 7.20225306,14.5138885 5.355752,15.4551897 C5.08957829,15.4551897 4.95649143,15.4551897 4.95649143,15.4551897 C4.95649143,15.4551897 15.0590029,5.96277168 15.4315085,5.01774852 C15.5085093,4.82228791 15.540872,4.5414524 15.3397771,4.46075255 C15.2494963,4.42457675 15.1463822,4.44917629 15.0528652,4.47655859 C14.3806143,4.67324362 13.747645,4.99259243 13.1981491,5.41256562 C13.1981491,5.41256562 13.0442555,5.41256562 12.7364684,5.41256562 C14.456724,4.04159633 15.713292,3.1714107 16.5061725,2.80200873 C16.8884985,2.62391249 17.5384969,2.62593041 17.7977649,2.94828127 C18.0857483,3.3063343 18.0857483,4.05349182 17.1234983,5.18698405 C16.5190465,5.89900424 14.4421034,7.89021819 14.1502813,9.55207869 C13.982665,10.5066745 14.1502813,12.1240784 16.3502392,12.4127951 C18.550197,12.7015118 21.9396426,11.0579937 23.1465473,8.66527075 C24.2795508,6.41905888 24.1661948,3.88884101 23.4933859,2.39439097 C23.2942996,1.7891977 22.9612989,1.23709937 22.4599006,0.818239282 Z" id="path-1"></path>
        <filter x="-2.1%" y="-2.2%" width="104.2%" height="108.9%" filterUnits="objectBoundingBox" id="filter-2">
            <feOffset dx="0" dy="1" in="SourceAlpha" result="shadowOffsetOuter1"></feOffset>
            <feColorMatrix values="0 0 0 0 0.0235294118   0 0 0 0 0   0 0 0 0 1  0 0 0 1 0" type="matrix" in="shadowOffsetOuter1"></feColorMatrix>
        </filter>
    </defs>
    <g id="Artboard" stroke="none" stroke-width="1" fill="none" fill-rule="evenodd">
        <g id="Fill-1-Copy-2">
            <use fill="black" fill-opacity="1" filter="url(#filter-2)" xlink:href="#path-1"></use>
            <use fill="#E84A67" fill-rule="evenodd" xlink:href="#path-1"></use>
        </g>
    </g>
</svg>