<?xml version="1.0" encoding="UTF-8"?>
<svg width="147px" height="16px" viewBox="0 0 147 16" version="1.1" xmlns="http://www.w3.org/2000/svg" xmlns:xlink="http://www.w3.org/1999/xlink">
    <!-- Generator: Sketch 64 (93537) - https://sketch.com -->
    <title>Artboard</title>
    <desc>Created with Sketch.</desc>
    <defs>
        <path d="M10.291,14.252 C14.467,14.252 16.141,12.722 16.663,12.146 C16.915,12.632 17.221,13.55 17.293,14 L20.515,14 L20.515,6.458 L10.597,6.458 L10.597,9.068 L15.295,9.068 C15.295,9.5 14.179,10.742 10.723,10.742 C7.393,10.742 6.133,9.068 6.133,7.358 L6.133,7.16 C6.133,5.396 7.159,3.848 10.759,3.848 C14.539,3.848 14.989,5.216 15.097,5.54 L20.425,5.54 L20.425,5.522 C20.371,3.65 19.219,0.356 11.029,0.356 L10.327,0.356 C2.443,0.356 0.841,4.118 0.841,6.998 L0.841,7.502 C0.841,10.328 2.551,14.252 9.877,14.252 L10.291,14.252 Z M27.657,14 L27.657,9.41 L32.553,9.41 C34.569,9.41 35.271,10.184 35.271,11.732 L35.271,13.298 C35.271,13.676 35.325,13.856 35.433,14 L40.653,14 L40.653,13.91 C40.527,13.676 40.401,13.334 40.401,12.398 L40.401,10.418 C40.401,8.69 39.285,7.61 37.647,7.232 C38.655,6.98 40.347,6.188 40.347,4.244 L40.347,4.046 C40.347,1.868 38.637,0.608 34.713,0.608 L22.545,0.608 L22.545,14 L27.657,14 Z M33.525,6.17 L27.657,6.17 L27.657,3.866 L33.525,3.866 C34.659,3.866 35.073,4.37 35.073,5 L35.073,5.018 C35.073,5.666 34.641,6.17 33.525,6.17 Z M47.291,14 L47.291,0.608 L42.197,0.608 L42.197,14 L47.291,14 Z M58.933,14.0000693 C66.907,14.018 68.581,10.526 68.581,7.484 L68.581,6.944 C68.581,3.776 66.637,0.608 58.915,0.608 L49.411,0.608 L49.411,14.0000693 L58.933,14.0000693 Z M58.321,10.454 L54.523,10.454 L54.523,4.118 L58.321,4.118 C62.6879565,4.118 63.2479896,5.96117108 63.2702751,7.13665137 L63.271,7.322 C63.271,8.492 62.767,10.454 58.321,10.454 Z M84.597,14 L84.597,10.166 L75.309,10.166 L75.309,0.608 L70.197,0.608 L70.197,14 L84.597,14 Z M96.023,14.252 C104.551776,14.252 105.74454,10.164793 105.778245,7.65115295 L105.779,6.998 C105.779,4.46 104.663,0.356 96.023,0.356 L95.213,0.356 C86.537,0.356 85.439,4.46 85.439,6.998 L85.439,7.538 C85.439,10.04 86.537,14.252 95.213,14.252 L96.023,14.252 Z M95.609,10.634 C91.649,10.634 90.731,8.744 90.731,7.34 L90.731,7.124 C90.731,5.702 91.577,3.956 95.609,3.956 C99.587,3.956 100.487,5.702 100.487,7.124 L100.487,7.376 C100.487,8.798 99.569,10.634 95.609,10.634 Z M117.169,14.252 C125.124719,14.252 126.452518,10.606644 126.492069,8.81012891 L126.493,8.438 L121.201,8.438 C121.129,8.744 120.733,10.634 116.791,10.634 C113.191,10.634 112.291,8.744 112.291,7.304 L112.291,7.088 C112.291,5.594 113.083,3.956 116.773,3.956 C120.643,3.956 121.093,5.666 121.183,6.008 L126.493,6.008 L126.493,5.774 C126.475,4.064 125.323,0.356 117.169,0.356 L116.467,0.356 C108.115,0.356 106.999,4.442 106.999,6.998 L106.999,7.52 C106.999,10.058 108.223,14.252 116.467,14.252 L117.169,14.252 Z M133.221,14 L133.221,8.006 L139.755,14 L146.415,14 L138.369,6.692 L146.163,0.608 L139.809,0.608 L133.221,5.9 L133.221,0.608 L128.109,0.608 L128.109,14 L133.221,14 Z" id="path-1"></path>
        <filter x="-0.3%" y="-3.6%" width="100.7%" height="114.4%" filterUnits="objectBoundingBox" id="filter-2">
            <feOffset dx="0" dy="1" in="SourceAlpha" result="shadowOffsetOuter1"></feOffset>
            <feColorMatrix values="0 0 0 0 0.0218443971   0 0 0 0 0   0 0 0 0 1  0 0 0 1 0" type="matrix" in="shadowOffsetOuter1"></feColorMatrix>
        </filter>
    </defs>
    <g id="Artboard" stroke="none" stroke-width="1" fill="none" fill-rule="evenodd">
        <g id="GRIDLOCK" fill-rule="nonzero">
            <use fill="black" fill-opacity="1" filter="url(#filter-2)" xlink:href="#path-1"></use>
            <use fill="#E84A67" xlink:href="#path-1"></use>
        </g>
    </g>
</svg>